<?xml version="1.0" encoding="UTF-8"?>
<svg xmlns="http://www.w3.org/2000/svg" version="1.1" xmlns:i="http://ns.adobe.com/AdobeIllustrator/10.0/" viewBox="0 0 510 120">
  <rect width="100%" height="100%" fill="#ffffff"/>
  <g transform="translate(255,60) scale(0.9) translate(-255,-60)">
    <g>
      <path d="M199.81,62.68c2.56,3.23,3.84,6.94,3.84,11.11,0,3.77-.93,7.09-2.78,9.95-1.85,2.86-4.53,5.1-8.03,6.72-3.5,1.62-7.64,2.42-12.42,2.42h-30.4V22.38h29.09c4.78,0,8.9.78,12.37,2.32,3.47,1.55,6.09,3.7,7.88,6.46,1.78,2.76,2.68,5.89,2.68,9.39,0,4.11-1.1,7.54-3.28,10.3-2.19,2.76-5.1,4.72-8.74,5.86,3.97.74,7.24,2.73,9.8,5.96ZM164.16,51.47h12.93c3.37,0,5.96-.76,7.78-2.27,1.82-1.52,2.73-3.69,2.73-6.52s-.91-5.01-2.73-6.57c-1.82-1.55-4.41-2.32-7.78-2.32h-12.93v17.68ZM186.43,78.95c1.92-1.62,2.88-3.9,2.88-6.87s-1.01-5.4-3.03-7.12c-2.02-1.72-4.75-2.58-8.18-2.58h-13.94v18.99h14.24c3.43,0,6.11-.81,8.03-2.42Z"/>
      <path d="M233.44,38.64c2.93-1.68,6.28-2.53,10.05-2.53v14.85h-3.74c-4.44,0-7.8,1.04-10.05,3.13-2.26,2.09-3.38,5.72-3.38,10.91v27.88h-14.14v-55.96h14.14v8.69c1.82-2.96,4.19-5.29,7.12-6.97Z"/>
      <path d="M290.94,49.65c2.25-4.38,5.34-7.74,9.24-10.1,3.91-2.36,8.25-3.54,13.03-3.54,3.64,0,7.1.79,10.4,2.37,3.3,1.58,5.92,3.69,7.88,6.31v-26.56h14.34v74.75h-14.34v-8.28c-1.75,2.76-4.21,4.98-7.37,6.67-3.17,1.68-6.84,2.53-11.01,2.53-4.71,0-9.02-1.21-12.93-3.64-3.91-2.42-6.99-5.84-9.24-10.25-2.26-4.41-3.38-9.48-3.38-15.2s1.13-10.67,3.38-15.05ZM329.58,56.07c-1.35-2.46-3.17-4.34-5.45-5.66-2.29-1.31-4.75-1.97-7.37-1.97s-5.05.64-7.27,1.92c-2.22,1.28-4.02,3.15-5.4,5.61-1.38,2.46-2.07,5.37-2.07,8.74s.69,6.31,2.07,8.84c1.38,2.53,3.2,4.46,5.45,5.81,2.26,1.35,4.66,2.02,7.22,2.02s5.08-.66,7.37-1.97c2.29-1.31,4.11-3.2,5.45-5.66,1.35-2.46,2.02-5.4,2.02-8.84s-.67-6.38-2.02-8.84Z"/>
      <path d="M391.28,38.49c3.16,1.65,5.66,3.79,7.47,6.41v-7.98h14.24v56.36c0,5.18-1.04,9.81-3.13,13.89-2.09,4.07-5.22,7.31-9.39,9.7-4.18,2.39-9.23,3.59-15.15,3.59-7.95,0-14.46-1.85-19.54-5.56-5.08-3.7-7.96-8.75-8.64-15.15h14.04c.74,2.56,2.34,4.6,4.8,6.11,2.46,1.52,5.44,2.27,8.94,2.27,4.11,0,7.44-1.23,10-3.69,2.56-2.46,3.84-6.18,3.84-11.16v-8.69c-1.82,2.63-4.33,4.82-7.53,6.57-3.2,1.75-6.85,2.63-10.96,2.63-4.71,0-9.02-1.21-12.93-3.64-3.91-2.42-6.99-5.84-9.24-10.25-2.26-4.41-3.38-9.48-3.38-15.2s1.13-10.67,3.38-15.05c2.25-4.38,5.32-7.74,9.19-10.1,3.87-2.36,8.2-3.54,12.98-3.54,4.17,0,7.84.82,11.01,2.47ZM396.73,56.07c-1.35-2.46-3.17-4.34-5.45-5.66-2.29-1.31-4.75-1.97-7.37-1.97s-5.05.64-7.27,1.92c-2.22,1.28-4.02,3.15-5.4,5.61-1.38,2.46-2.07,5.37-2.07,8.74s.69,6.31,2.07,8.84c1.38,2.53,3.2,4.46,5.45,5.81,2.26,1.35,4.66,2.02,7.22,2.02s5.08-.66,7.37-1.97c2.29-1.31,4.11-3.2,5.45-5.66,1.35-2.46,2.02-5.4,2.02-8.84s-.67-6.38-2.02-8.84Z"/>
      <path d="M432.68,27.89c-1.65-1.58-2.47-3.55-2.47-5.91s.82-4.33,2.47-5.91c1.65-1.58,3.72-2.37,6.21-2.37s4.56.79,6.21,2.37c1.65,1.58,2.47,3.55,2.47,5.91s-.82,4.33-2.47,5.91c-1.65,1.58-3.72,2.37-6.21,2.37s-4.56-.79-6.21-2.37ZM445.86,36.93v55.96h-14.14v-55.96h14.14ZM421.62,36.93h10.1v14.14h-10.1v-14.14Z"/>
      <path d="M459.51,49.7c2.36-4.34,5.62-7.71,9.8-10.1,4.17-2.39,8.95-3.59,14.34-3.59,6.93,0,12.68,1.73,17.22,5.2,4.55,3.47,7.59,8.33,9.14,14.59h-15.25c-.81-2.42-2.17-4.33-4.09-5.71-1.92-1.38-4.29-2.07-7.12-2.07-4.04,0-7.24,1.46-9.6,4.39-2.36,2.93-3.54,7.09-3.54,12.47s1.18,9.44,3.54,12.37c2.36,2.93,5.56,4.39,9.6,4.39,5.72,0,9.46-2.56,11.21-7.68h15.25c-1.55,6.06-4.61,10.88-9.19,14.44-4.58,3.57-10.3,5.35-17.17,5.35-5.39,0-10.17-1.19-14.34-3.58-4.18-2.39-7.44-5.76-9.8-10.1-2.36-4.34-3.54-9.41-3.54-15.2s1.18-10.86,3.54-15.2Z"/>
      <g>
        <path d="M263.53,27.89c-1.65-1.58-2.47-3.55-2.47-5.91s.82-4.33,2.47-5.91c1.65-1.58,3.72-2.37,6.21-2.37s4.56.79,6.21,2.37c1.65,1.58,2.47,3.55,2.47,5.91s-.82,4.33-2.47,5.91c-1.65,1.58-3.72,2.37-6.21,2.37s-4.56-.79-6.21-2.37ZM276.71,36.93v55.96h-14.14v-55.96h14.14Z"/>
        <rect x="252.47" y="36.93" width="10.1" height="14.14"/>
      </g>
    </g>
    <g>
      <g>
        <polygon fill="#da9ffe" points="120.02 48.46 100.02 36.46 60.02 60.46 100.02 84.46 120.02 72.46 100.02 60.46 120.02 48.46"/>
        <polygon fill="#b970ff" points="80.02 .46 60.02 12.46 120.02 48.46 120.02 24.46 80.02 .46"/>
        <polygon fill="#b970ff" points="60.02 108.46 80.02 120.46 120.02 96.46 120.02 72.46 60.02 108.46"/>
      </g>
      <polygon fill="#008dfd" points="40.02 24.46 .02 48.46 .02 72.46 20.02 60.46 60.02 36.46 40.02 24.46"/>
      <polygon fill="#01b4fe" points="20.02 60.46 .02 72.46 40.02 96.46 60.02 84.46 20.02 60.46"/>
    </g>
  </g>
</svg>
